<svg width="33" height="33" viewBox="0 0 33 33" fill="none" xmlns="http://www.w3.org/2000/svg">
<g id="GlobeHemisphereWest">
<path id="Vector" d="M16.0037 3.59802C13.4325 3.59802 10.9191 4.36046 8.78125 5.78892C6.64342 7.21738 4.97717 9.2477 3.99323 11.6231C3.00929 13.9986 2.75185 16.6124 3.25346 19.1342C3.75507 21.656 4.9932 23.9723 6.81128 25.7904C8.62936 27.6085 10.9457 28.8466 13.4675 29.3482C15.9892 29.8498 18.6031 29.5924 20.9786 28.6085C23.354 27.6245 25.3843 25.9583 26.8128 23.8204C28.2412 21.6826 29.0037 19.1692 29.0037 16.598C29 13.1513 27.6292 9.84684 25.192 7.40965C22.7549 4.97247 19.4504 3.60166 16.0037 3.59802ZM27.0037 16.598C27.0048 18.0092 26.7331 19.4074 26.2037 20.7155L20.6162 17.2793C20.3786 17.1327 20.1128 17.0377 19.8362 17.0005L16.9837 16.6155C16.5906 16.5643 16.1912 16.6302 15.8354 16.8049C15.4796 16.9797 15.1833 17.2556 14.9837 17.598H13.8937L13.4187 16.6155C13.2874 16.3419 13.0952 16.102 12.8568 15.9142C12.6185 15.7264 12.3404 15.5955 12.0437 15.5318L11.0437 15.3155L12.0212 13.598H14.1099C14.4479 13.5974 14.7803 13.5114 15.0762 13.348L16.6074 12.503C16.7419 12.428 16.8677 12.3383 16.9824 12.2355L20.3462 9.19302C20.6834 8.89079 20.9076 8.48262 20.9817 8.03586C21.0557 7.5891 20.9753 7.13043 20.7537 6.73552L20.7087 6.65427C22.5909 7.54677 24.1815 8.95476 25.2957 10.7148C26.4099 12.4749 27.0022 14.5149 27.0037 16.598ZM5.00367 16.598C5.002 14.963 5.36677 13.3485 6.07117 11.873L7.48867 15.6568C7.6068 15.9701 7.80168 16.2487 8.05546 16.4671C8.30924 16.6855 8.61378 16.8366 8.94117 16.9068L11.6199 17.483L12.0962 18.473C12.2614 18.8097 12.5176 19.0935 12.8357 19.2923C13.1537 19.4911 13.5211 19.597 13.8962 19.598H14.0812L13.1774 21.6268C13.0182 21.984 12.9672 22.3801 13.0307 22.766C13.0943 23.1519 13.2696 23.5107 13.5349 23.798L13.5524 23.8155L16.0037 26.3405L15.7612 27.5905C12.8885 27.5237 10.1556 26.3368 8.14582 24.2831C6.13602 22.2294 5.00843 19.4715 5.00367 16.598Z" fill="white"/>
</g>
</svg>
